<svg width="35" height="35" viewBox="0 0 35 35" fill="none" xmlns="http://www.w3.org/2000/svg">
<rect width="35" height="35" rx="5" fill="#5086B2"/>
<path d="M16.5 2.91666C16.5 2.91666 6 14.061 6 21.9457C6 28.1663 10.0571 32.0833 16.5 32.0833C22.9429 32.0833 27 28.1663 27 21.9457C27 14.061 16.5 2.91666 16.5 2.91666V2.91666ZM17.6667 28.4225V26.7329C18.8266 26.7316 19.9386 26.2862 20.7588 25.4943C21.5789 24.7024 22.0403 23.6288 22.0417 22.5089H23.7917C23.7899 24.0768 23.1441 25.58 21.9958 26.6886C20.8475 27.7973 19.2906 28.4209 17.6667 28.4225Z" fill="white"/>
</svg>
