<svg width="35" height="35" viewBox="0 0 35 35" fill="none" xmlns="http://www.w3.org/2000/svg">
<rect width="35" height="35" rx="5" fill="#5086B2"/>
<path d="M13.476 31.6017C14.6326 31.8665 15.8167 32 17.0054 32C18.1916 31.9988 19.3735 31.8644 20.527 31.5995C20.8303 31.5294 21.1037 31.3715 21.3099 31.1471C21.5162 30.9227 21.6453 30.6427 21.6798 30.3454L21.9441 28.042C21.9888 27.6301 22.1853 27.247 22.4983 26.9617C22.8112 26.6764 23.2201 26.5076 23.6513 26.4857C23.9383 26.4737 24.2238 26.5255 24.4866 26.6357L26.6818 27.559C26.8727 27.6413 27.0794 27.6845 27.2886 27.6858C27.4979 27.6871 27.7052 27.6465 27.8971 27.5665C28.0903 27.4878 28.2631 27.3708 28.4055 27.223C30.0196 25.5544 31.2246 23.561 31.9325 21.3885C32.0252 21.1003 32.0223 20.7916 31.9243 20.505C31.8262 20.2184 31.6378 19.9681 31.3851 19.7886L29.4346 18.4086C29.2023 18.2468 29.0133 18.0345 28.8829 17.7892C28.7525 17.5438 28.6846 17.2724 28.6846 16.997C28.6846 16.7216 28.7525 16.4502 28.8829 16.2048C29.0133 15.9595 29.2023 15.7472 29.4346 15.5854L31.3788 14.2084C31.6323 14.0285 31.8211 13.7776 31.9192 13.4903C32.0173 13.203 32.0197 12.8935 31.9263 12.6048C31.2182 10.432 30.0116 8.43885 28.3953 6.77174C28.1811 6.55221 27.9012 6.40184 27.5942 6.34139C27.2871 6.28093 26.968 6.31337 26.681 6.43422L24.4866 7.36127C24.2598 7.45952 24.0126 7.51128 23.7624 7.51128C23.3119 7.51043 22.8776 7.35013 22.5428 7.06112C22.208 6.77212 21.9962 6.37474 21.948 5.9452L21.6821 3.65008C21.6481 3.34885 21.5167 3.06536 21.3064 2.83928C21.096 2.61321 20.8172 2.45586 20.509 2.38927C19.3613 2.14353 18.1899 2.01307 17.014 2C15.83 2.01311 14.6506 2.14381 13.4948 2.39002C13.1869 2.45624 12.9083 2.61307 12.698 2.8386C12.4877 3.06412 12.3561 3.34706 12.3217 3.64783L12.0558 5.94445C12.0056 6.37468 11.7917 6.77205 11.4551 7.0605C11.1116 7.34037 10.6787 7.49916 10.2281 7.51052C9.97959 7.51037 9.73381 7.46082 9.50626 7.36502L7.3165 6.43797C7.02853 6.31603 6.70812 6.28316 6.39977 6.34391C6.09143 6.40467 5.81048 6.55604 5.59597 6.77699C3.98185 8.44447 2.77678 10.4369 2.06889 12.6085C1.97538 12.8971 1.97784 13.2065 2.07594 13.4937C2.17403 13.7809 2.3629 14.0317 2.61633 14.2114L4.56209 15.5884C4.90968 15.8348 5.15532 16.1911 5.25563 16.5943C5.35594 16.9975 5.30447 17.4217 5.11031 17.792C4.9812 18.0376 4.79367 18.2506 4.56287 18.4138L2.61555 19.7931C2.36234 19.9726 2.1736 20.2231 2.07551 20.5101C1.97742 20.797 1.97483 21.1061 2.06811 21.3945C2.77474 23.5682 3.97992 25.5626 5.59519 27.2313C5.80857 27.4521 6.08849 27.6036 6.39592 27.6647C6.70334 27.7257 7.02297 27.6932 7.31024 27.5718L9.51408 26.644C9.74166 26.548 9.98722 26.4985 10.2359 26.4985H10.2422C10.6909 26.499 11.1238 26.6579 11.4584 26.9447C11.793 27.2316 12.0059 27.6264 12.0565 28.0541L12.3209 30.3469C12.3553 30.6447 12.4847 30.925 12.6915 31.1496C12.8982 31.3741 13.1722 31.5321 13.476 31.6017ZM16.9999 21.6877C15.7036 21.6877 14.4603 21.1938 13.5437 20.3147C12.627 19.4356 12.1121 18.2433 12.1121 17C12.1121 15.7567 12.627 14.5644 13.5437 13.6853C14.4603 12.8061 15.7036 12.3123 16.9999 12.3123C18.2963 12.3123 19.5395 12.8061 20.4562 13.6853C21.3728 14.5644 21.8878 15.7567 21.8878 17C21.8878 18.2433 21.3728 19.4356 20.4562 20.3147C19.5395 21.1938 18.2963 21.6877 16.9999 21.6877Z" fill="white"/>
</svg>
