<svg width="35" height="35" viewBox="0 0 35 35" fill="none" xmlns="http://www.w3.org/2000/svg">
<rect width="35" height="35" rx="5" fill="#5086B2"/>
<path d="M31.3998 17.2624L18.2236 3.31759C18.1287 3.21692 18.016 3.13704 17.8919 3.08255C17.7679 3.02805 17.6349 3 17.5006 3C17.3663 3 17.2333 3.02805 17.1093 3.08255C16.9852 3.13704 16.8725 3.21692 16.7776 3.31759L3.60139 17.2624C3.21752 17.669 3 18.2212 3 18.7971C3 19.9931 3.91808 20.9654 5.04729 20.9654H6.43562V30.9159C6.43562 31.5155 6.89306 32 7.45926 32H15.4533V24.411H19.0361V32H27.5419C28.1081 32 28.5656 31.5155 28.5656 30.9159V20.9654H29.9539C30.4977 20.9654 31.0191 20.7384 31.403 20.3285C32.1995 19.4815 32.1995 18.1094 31.3998 17.2624V17.2624Z" fill="white"/>
</svg>
