<svg width="35" height="35" viewBox="0 0 35 35" fill="none" xmlns="http://www.w3.org/2000/svg">
<rect width="35" height="35" rx="5" fill="#5086B2"/>
<path d="M25.75 10.75H8.25C7.55964 10.75 7 11.3096 7 12V28.25C7 28.9404 7.55964 29.5 8.25 29.5H25.75C26.4404 29.5 27 28.9404 27 28.25V12C27 11.3096 26.4404 10.75 25.75 10.75Z" stroke="white" stroke-width="4" stroke-linecap="round" stroke-linejoin="round"/>
<path d="M12.625 13.25V8.875C12.625 8.30047 12.7382 7.73156 12.958 7.20076C13.1779 6.66996 13.5002 6.18766 13.9064 5.78141C14.3127 5.37515 14.795 5.05289 15.3258 4.83303C15.8566 4.61316 16.4255 4.5 17 4.5C17.5745 4.5 18.1434 4.61316 18.6742 4.83303C19.205 5.05289 19.6873 5.37515 20.0936 5.78141C20.4998 6.18766 20.8221 6.66996 21.042 7.20076C21.2618 7.73156 21.375 8.30047 21.375 8.875V13.25" stroke="white" stroke-width="4" stroke-linecap="round" stroke-linejoin="round"/>
</svg>
