<svg id="Layer_1" data-name="Layer 1" xmlns="http://www.w3.org/2000/svg" viewBox="0 0 987 459"><defs><style>.cls-1{fill:#5086b2;stroke:#195091;stroke-miterlimit:10;stroke-width:0.75px;}.cls-2{fill:#195091;}</style></defs><path class="cls-1" d="M425.75,324.44,602.22,216.62a12.34,12.34,0,0,0,4.09-16.94l-58.76-96.16a12.32,12.32,0,0,0-21.19.26l-117.7,204C402.28,318.83,414.86,331.1,425.75,324.44Z"/><path class="cls-2" d="M671.34,318l-51-88.38a12,12,0,0,0-16.45-4.41l-41.11,23.73a12.05,12.05,0,0,0-.9,20.29L654,333.85C664.55,341.25,677.79,329.14,671.34,318Z"/><path class="cls-2" d="M265.94,95.88a35,35,0,0,1,8.9,1,10.2,10.2,0,0,1,6.22,4.87c1.56,2.57,2.35,6.78,2.35,12.6q0,8.06-2.52,11.92a10.79,10.79,0,0,1-6.55,4.87,37.07,37.07,0,0,1-9.07,1H203.79V310.9a41.13,41.13,0,0,1-1.18,10.25,12,12,0,0,1-5.37,7.22c-2.81,1.79-7.45,2.69-14,2.69q-9.4,0-13.6-2.86a11.82,11.82,0,0,1-5.21-7.39,47.52,47.52,0,0,1-1-10.25V132.16H101a37.57,37.57,0,0,1-8.9-1,10.17,10.17,0,0,1-6.55-4.87q-2.37-3.86-2.36-12.26t2.36-12.26a10.2,10.2,0,0,1,6.55-4.87,37.57,37.57,0,0,1,8.9-1Z"/><path class="cls-2" d="M728.79,330.72c-6,0-10.47-1-13.27-2.85a13.28,13.28,0,0,1-5.55-7.56,36.81,36.81,0,0,1-1.34-10.08V115.7a31.68,31.68,0,0,1,1.34-9.58,13.15,13.15,0,0,1,5.88-7.05q4.53-2.85,13.95-2.86,10.07,0,13.94,2.19A24.62,24.62,0,0,1,751,105L862.84,261.51V115.7a31.35,31.35,0,0,1,1.35-9.58,13.2,13.2,0,0,1,5.71-7.05c2.9-1.9,7.5-2.86,13.77-2.86q9.08,0,13.44,3a13.11,13.11,0,0,1,5.54,7.72A41.21,41.21,0,0,1,903.83,117V310.56a31.06,31.06,0,0,1-1.52,9.91,13.76,13.76,0,0,1-6,7.4c-3,1.89-7.68,2.85-13.94,2.85a41.56,41.56,0,0,1-11.76-1.34,15.53,15.53,0,0,1-7.73-5.71L749.28,167.1V310.56a39.09,39.09,0,0,1-1.18,9.91,12.39,12.39,0,0,1-5.54,7.4C739.65,329.76,735.06,330.72,728.79,330.72Z"/><path class="cls-2" d="M360.68,136.74V117a42.66,42.66,0,0,0-1.17-10.58,12.65,12.65,0,0,0-5.38-7.39q-4.2-2.85-13.61-2.86-9.75,0-14.11,2.86a12.43,12.43,0,0,0-5.54,7.39,40.66,40.66,0,0,0-1.18,10.25V160.4Z"/><path class="cls-2" d="M319.69,166.79V310.23a42.55,42.55,0,0,0,1.18,10.41,12.54,12.54,0,0,0,5.38,7.56q4.19,2.85,13.94,2.86,9.4,0,13.77-2.86a12.46,12.46,0,0,0,5.55-7.39,41.09,41.09,0,0,0,1.17-10.25V143.12Z"/></svg>